<svg xmlns="http://www.w3.org/2000/svg" width="1024" height="1024" viewBox="0 0 1024 1024" role="img" aria-labelledby="title desc">
  <title id="title">SmartMail icon alternative 2</title>
  <desc id="desc">Minimal monogram SM with route pin accent.</desc>
  <defs>
    <linearGradient id="bg" x1="0" y1="0" x2="1" y2="1">
      <stop offset="0%" stop-color="#0B1A2B"/>
      <stop offset="100%" stop-color="#1F3B5A"/>
    </linearGradient>
    <linearGradient id="accent" x1="0" y1="0" x2="1" y2="1">
      <stop offset="0%" stop-color="#FF7A2F"/>
      <stop offset="100%" stop-color="#FF4A00"/>
    </linearGradient>
  </defs>

  <rect x="64" y="64" width="896" height="896" rx="220" fill="url(#bg)"/>

  <path d="M290 670V356H706V442H388V492H658V578H388V670H290Z" fill="#FFFFFF"/>
  <path d="M706 356V670H608V524L520 620L432 524V670H334V356H422L520 466L618 356H706Z" fill="#D9E8F3" opacity="0.92"/>

  <path d="M726 744C680 690 640 688 596 744C596 796 636 834 678 834C720 834 760 796 760 744C760 744 760 744 760 744Z" fill="url(#accent)"/>
  <circle cx="678" cy="744" r="20" fill="#FFFFFF"/>
  <path d="M566 760C610 728 642 722 678 744" fill="none" stroke="#FF9A67" stroke-width="16" stroke-linecap="round"/>
</svg>
